<svg width="24" height="24" viewBox="0 0 24 24" fill="none" xmlns="http://www.w3.org/2000/svg">
<path d="M5.5 20H12.5C13.6046 20 14.5 19.1046 14.5 18V16C14.5 15.4477 14.9477 15 15.5 15C16.0523 15 16.5 15.4477 16.5 16V18C16.5 20.2091 14.7091 22 12.5 22H5.5C3.29086 22 1.5 20.2091 1.5 18V6C1.5 3.79086 3.29086 2 5.5 2H12.5C14.7091 2 16.5 3.79086 16.5 6V8C16.5 8.55228 16.0523 9 15.5 9C14.9477 9 14.5 8.55228 14.5 8V6C14.5 4.89543 13.6046 4 12.5 4H5.5C4.39543 4 3.5 4.89543 3.5 6V18C3.5 19.1046 4.39543 20 5.5 20Z" fill="black"/>
<path d="M8.5 12C8.5 12.5523 8.94771 13 9.5 13L19.5858 13L18.2929 14.2929C17.9024 14.6834 17.9024 15.3166 18.2929 15.7071C18.6834 16.0976 19.3166 16.0976 19.7071 15.7071L22.7071 12.7071C23.0976 12.3166 23.0976 11.6834 22.7071 11.2929L19.7071 8.29289C19.3166 7.90237 18.6834 7.90237 18.2929 8.29289C17.9024 8.68342 17.9024 9.31658 18.2929 9.70711L19.5858 11L9.5 11C8.94772 11 8.5 11.4477 8.5 12Z" fill="black"/>
</svg>
